<svg width="400" height="401" viewBox="0 0 400 401" fill="none" xmlns="http://www.w3.org/2000/svg">
<g filter="url(#filter0_d_260_243)">
<path d="M200.193 107.122C213.625 107.122 222.165 118.188 222.165 128.15V145.268C250.412 152.117 264.777 175.309 264.816 205.653L264.816 143.074C264.816 107.385 241.431 74.7559 200.195 74.7559C163.54 74.7559 143.471 100.134 137.088 129.11H178.242C178.242 119.419 186.048 107.122 200.193 107.122Z" fill="#A7E2F4"/>
<path fill-rule="evenodd" clip-rule="evenodd" d="M292.451 234.384L292.451 234.505C292.451 285.564 251.059 326.956 200 326.956C148.94 326.956 107.548 285.564 107.548 234.505C107.548 183.445 148.94 142.053 200 142.053C250.985 142.053 292.386 183.399 292.451 234.384ZM221.828 229.352V239.658C221.828 251.713 212.055 261.486 200 261.486C187.945 261.486 178.172 251.713 178.172 239.658V229.352C178.172 217.296 187.945 207.524 200 207.524C212.055 207.524 221.828 217.296 221.828 229.352Z" fill="url(#paint0_linear_260_243)"/>
</g>
<defs>
<filter id="filter0_d_260_243" x="-142.452" y="-114.244" width="684.903" height="752.2" filterUnits="userSpaceOnUse" color-interpolation-filters="sRGB">
<feFlood flood-opacity="0" result="BackgroundImageFix"/>
<feColorMatrix in="SourceAlpha" type="matrix" values="0 0 0 0 0 0 0 0 0 0 0 0 0 0 0 0 0 0 127 0" result="hardAlpha"/>
<feOffset dy="61"/>
<feGaussianBlur stdDeviation="125"/>
<feColorMatrix type="matrix" values="0 0 0 0 0.121569 0 0 0 0 0.690196 0 0 0 0 0.937255 0 0 0 0.1 0"/>
<feBlend mode="normal" in2="BackgroundImageFix" result="effect1_dropShadow_260_243"/>
<feBlend mode="normal" in="SourceGraphic" in2="effect1_dropShadow_260_243" result="shape"/>
</filter>
<linearGradient id="paint0_linear_260_243" x1="150.16" y1="376.169" x2="348.506" y2="170.927" gradientUnits="userSpaceOnUse">
<stop stop-color="#1B87EA"/>
<stop offset="1" stop-color="#22EAF7"/>
</linearGradient>
</defs>
</svg>
